# xmcd
#
# Track frame offsets:
# 150
# 13032
# 30815
# 40437
# 51990
# 62142
# 80275
# 92362
# 103627
# 113471
#
# Disc length: 1663 seconds
#
#
# Revision: 2
# Processed by: cddbd v1.5.1PL0 Copyright (c) Steve Scherf et al.
# Submitted via: FreeRIP 2.942 
#
DISCID=6c067d0a
DTITLE=Various Artist - Truckin' On
DYEAR=1987
DGENRE=Country
TTITLE0=Del Reeves - Girl On The Billboard
TTITLE1=Red Sovine and Johnny Bond - The Gear Jammer and The Hobo
TTITLE2=Moore and Napier - Truck Driver's Queen
TTITLE3=George Jones - One Is A Lonely Number
TTITLE4=Del Reeves - Looking At The World Thru A Windshield
TTITLE5=Red Sovine - Giddy-Up Go
TTITLE6=Grandpa Jones - Eight More Miles To Louisville
TTITLE7=Jimmy Martin - Truck Drivin' Man
TTITLE8=Claude Gray - I'll Have Another Cup Of Coffee Then I'll Go
TTITLE9=Red Sovine - Woman Behind The Man Behind The Wheel
EXTD=Highland Music
EXTT0=
EXTT1=
EXTT2=
EXTT3=
EXTT4=
EXTT5=
EXTT6=
EXTT7=
EXTT8=
EXTT9=
PLAYORDER=
